<?xml version="1.0" standalone="no"?>
<!DOCTYPE svg PUBLIC "-//W3C//DTD SVG 1.1//EN" "http://www.w3.org/Graphics/SVG/1.1/DTD/svg11.dtd" >
<svg>
<metadata>
Created by FontForge 20090914 at Mon Jun  3 12:24:52 2013
 By www-data
</metadata>
<defs>
<font id="ChunkFive" horiz-adv-x="388" >
  <font-face 
    font-family="ChunkFive"
    font-weight="400"
    font-stretch="normal"
    units-per-em="1000"
    panose-1="0 0 0 0 0 0 0 0 0 0"
    ascent="750"
    descent="-250"
    x-height="499.999"
    cap-height="699"
    bbox="-10 -230 1025 815"
    underline-thickness="50"
    underline-position="-50"
    unicode-range="U+0020-U+2022"
  />
<missing-glyph horiz-adv-x="280" 
 />
    <glyph glyph-name=".notdef" horiz-adv-x="280" 
 />
    <glyph glyph-name="space" unicode=" " horiz-adv-x="250" 
 />
    <glyph glyph-name="space" unicode="&#xa0;" horiz-adv-x="250" 
 />
    <glyph glyph-name="exclam" unicode="!" horiz-adv-x="308" 
d="M28 102c0 12.667 2.49902 25.3359 7.49902 38.0029s12.5 24 22.5 34s22 18.167 36 24.5s30 9.5 48 9.5s34.167 -2.83301 48.5 -8.5s26.833 -13.334 37.5 -23.001s18.834 -21 24.501 -34s8.5 -26.5 8.5 -40.5c0 -28 -10.667 -52.167 -32 -72.5s-50.333 -30.5 -87 -30.5
c-16 0 -31 3 -45 9s-26.167 13.667 -36.5 23s-18.333 20.166 -24 32.499s-8.5 25.166 -8.5 38.499zM31.999 509.002v190h239v-190l-53 -252h-132z" />
    <glyph glyph-name="quotesingle" unicode="'" horiz-adv-x="273" 
d="M234 701l-36 -299h-125l-37 299h198z" />
    <glyph glyph-name="parenleft" unicode="(" 
d="M363 709l-44.499 -56.5c-17.667 -23 -34.5 -50.667 -50.5 -83s-29.833 -69.833 -41.5 -112.5s-17.5 -91 -17.5 -145c0 -56 5.33301 -105.667 16 -149s23.667 -81.833 39 -115.5s32 -62.667 50 -87s34.333 -45.166 49 -62.499l-103 -107
c-27.333 24.667 -54.833 55 -82.5 91s-52.834 76.333 -75.501 121s-41.167 93 -55.5 145s-21.5 106.667 -21.5 164c0 58.667 8.33301 114.667 25 168s37.167 101.666 61.5 144.999s50 81.333 77 114s50.833 58 71.5 76z" />
    <glyph glyph-name="parenright" unicode=")" 
d="M128 814c20.667 -18 44.5 -43.333 71.5 -76s52.667 -70.667 77 -114s44.833 -91.666 61.5 -144.999s25 -109.333 25 -168c0 -57.333 -7.16699 -112 -21.5 -164s-32.833 -100.333 -55.5 -145s-48 -85 -76 -121s-55.333 -66.333 -82 -91l-103 107
c14.667 17.333 31 38.166 49 62.499s34.667 53.333 50 87s28.333 72.167 39 115.5s16 93 16 149c0 54 -5.83301 102.333 -17.5 145s-25.5 80.167 -41.5 112.5s-32.833 60 -50.5 83l-44.5 56.5z" />
    <glyph glyph-name="comma" unicode="," horiz-adv-x="272" 
d="M-6 -129c18 22 33.499 44.333 46.499 67s23.5 46.834 31.5 72.501s13.5 53.5 16.5 83.5s3.16699 64 0.5 102l182 -48c2 -64.667 -11.667 -126.334 -41 -185.001s-69.666 -111 -120.999 -157z" />
    <glyph glyph-name="hyphen" unicode="-" horiz-adv-x="386" 
d="M47 305h290v-133h-290v133z" />
    <glyph glyph-name="period" unicode="." horiz-adv-x="258" 
d="M15 104c0 12.667 2.50195 25.834 7.50195 39.501s12.167 26 21.5 37s21.166 20 35.499 27s30.5 10.5 48.5 10.5s34.167 -3.5 48.5 -10.5s26.5 -16 36.5 -27s17.5 -23.333 22.5 -37s7.5 -26.834 7.5 -39.501c0 -30 -9.66699 -55.5 -29 -76.5s-48 -31.5 -86 -31.5
c-16.667 0 -31.834 3.16699 -45.501 9.5s-25.5 14.5 -35.5 24.5s-17.833 21.5 -23.5 34.5s-8.5 26.167 -8.5 39.5z" />
    <glyph glyph-name="zero" unicode="0" horiz-adv-x="599" 
d="M302 -12c-42 0 -80.5 7.5 -115.5 22.5s-65.167 37.667 -90.5 68s-45.166 68.333 -59.499 114s-21.5 99.167 -21.5 160.5c0 52.667 6.83301 101.167 20.5 145.5s33 82.166 58 113.499s54.833 55.833 89.5 73.5s72.667 26.5 114 26.5c48.667 0 91.167 -8.66699 127.5 -26
s66.166 -42 89.499 -74s40.833 -70.5 52.5 -115.5s17.5 -95.167 17.5 -150.5s-6.16699 -105.166 -18.5 -149.499s-30.5 -82 -54.5 -113s-53.5 -54.667 -88.5 -71s-75.167 -24.5 -120.5 -24.5zM302 143c11.333 0 22 4.83105 32 14.498s18.667 23.334 26 41.001s13 39 17 64
s6 52.833 6 83.5c0 30 -2.16699 57.5 -6.5 82.5s-10.5 46.5 -18.5 64.5s-17.333 32.167 -28 42.5s-22 15.5 -34 15.5c-9.33301 0 -18.833 -4.5 -28.5 -13.5s-18.5 -22.167 -26.5 -39.5s-14.667 -38.166 -20 -62.499s-8 -51.833 -8 -82.5c0 -32 2.83301 -61 8.5 -87
s12.667 -48.167 21 -66.5s17.833 -32.333 28.5 -42s21 -14.5 31 -14.5z" />
    <glyph glyph-name="one" unicode="1" horiz-adv-x="496" 
d="M25 568l41 20c13.333 6.66699 26.833 14.5 40.5 23.5s28.167 20.333 43.5 34s32 31.5 50 53.5h178v-566h93v-133h-400v133h100v371l-100 -47z" />
    <glyph glyph-name="two" unicode="2" horiz-adv-x="590" 
d="M33 586c35.333 40.667 74.998 71.5 118.998 92.5s91 31.5 141 31.5c33.333 0 64.5 -5 93.5 -15s54.167 -24.5 75.5 -43.5s38.166 -42 50.499 -69s18.5 -57.5 18.5 -91.5c0 -28.667 -3.33301 -53.334 -10 -74.001s-16.667 -39.167 -30 -55.5s-30 -31.833 -50 -46.5
s-43.333 -30.667 -70 -48c-12 -8 -25.5 -17.5 -40.5 -28.5s-29.667 -22.667 -44 -35s-27.333 -24.666 -39 -36.999s-20.5 -23.5 -26.5 -33.5h176v80h168v-213h-540v145c14 22.667 26.333 41.834 37 57.501s21.5 29.667 32.5 42s22.5 24 34.5 35s26 22.833 42 35.5
c18 16 37.333 30.667 58 44s39.834 26.5 57.501 39.5s32.334 26.333 44.001 40s17.5 28.167 17.5 43.5c0 25.333 -8.16699 42.666 -24.5 51.999s-36.166 14 -59.499 14c-13.333 0 -25.833 -2.5 -37.5 -7.5s-22.667 -11.167 -33 -18.5s-19.833 -15.5 -28.5 -24.5l-24 -25.5z
" />
    <glyph glyph-name="three" unicode="3" horiz-adv-x="540" 
d="M248 -13c-24 0 -47.6738 3.16602 -71.0068 9.49902s-45.5 14.666 -66.5 24.999s-39.667 22.333 -56 36s-29.5 27.834 -39.5 42.501l102 106c18.667 -18.667 38.167 -34.167 58.5 -46.5s44.833 -18.5 73.5 -18.5c28 0 50 6.5 66 19.5s24 32.167 24 57.5
c0 27.333 -7.5 46.333 -22.5 57s-35.167 16 -60.5 16h-75v119h73c24 0 44.167 5.83301 60.5 17.5s24.5 28.834 24.5 51.501c0 13.333 -2.66699 25 -8 35s-12.166 18.167 -20.499 24.5s-17.666 11.166 -27.999 14.499s-20.833 5 -31.5 5c-19.333 0 -39.333 -5.33301 -60 -16
s-39.667 -25.334 -57 -44.001l-97 117c8.66699 10 20.5 20.5 35.5 31.5s32 21.167 51 30.5s39.333 17.166 61 23.499s43.834 9.5 66.501 9.5c40.667 0 76.834 -5 108.501 -15s58.334 -24.333 80.001 -43s38.167 -41 49.5 -67s17 -55 17 -87
c0 -17.333 -2.66699 -32.666 -8 -45.999s-11.833 -25.166 -19.5 -35.499s-15.667 -19.333 -24 -27s-15.833 -13.834 -22.5 -18.501c8 -6 17.333 -13.667 28 -23s20.834 -20.666 30.501 -33.999s17.834 -28.833 24.501 -46.5s10 -37.834 10 -60.501
c0 -37.333 -8.16699 -69.666 -24.5 -96.999s-37.5 -50.166 -63.5 -68.499s-55.5 -32 -88.5 -41s-66.5 -13.5 -100.5 -13.5z" />
    <glyph glyph-name="four" unicode="4" horiz-adv-x="584" 
d="M10 340l288 359h207v-394h53v-108h-53v-65h54v-132h-324v132h63v65h-288v143zM298 305v185l-148 -185h148z" />
    <glyph glyph-name="five" unicode="5" horiz-adv-x="577" 
d="M263 -13c-25.333 0 -50.5 3.33301 -75.5 10s-48.667 15.667 -71 27s-42.333 24.333 -60 39s-31.5 29.667 -41.5 45l109 113c19.333 -20 40.166 -37.333 62.499 -52s48.166 -22 77.499 -22c34 0 60.833 9.33301 80.5 28s29.5 42.667 29.5 72
c0 13.333 -2.66699 25.833 -8 37.5s-12.5 22 -21.5 31s-19.833 16 -32.5 21s-26 7.5 -40 7.5c-23.333 0 -42.166 -4.83301 -56.499 -14.5s-26.833 -20.167 -37.5 -31.5l-128 57l61 344h396v-149h-269l-17 -97c10 6.66699 24.333 12.334 43 17.001s40.334 7 65.001 7
c29.333 0 58 -5 86 -15s52.833 -25 74.5 -45s39.167 -44.833 52.5 -74.5s20 -63.834 20 -102.501c0 -42 -8.83301 -78.833 -26.5 -110.5s-40.667 -58 -69 -79s-60.333 -36.833 -96 -47.5s-71.5 -16 -107.5 -16z" />
    <glyph glyph-name="six" unicode="6" horiz-adv-x="581" 
d="M478 501c-17.333 10 -38.3301 20.999 -62.9971 32.999s-52.334 18 -83.001 18c-37.333 -1.33301 -67.166 -15 -89.499 -41s-36.166 -57.667 -41.499 -95c13.333 13.333 31.833 24.833 55.5 34.5s48.834 15.167 75.501 16.5c32 1.33301 62.167 -3.16699 90.5 -13.5
s53.166 -25.333 74.499 -45s38.166 -43.5 50.499 -71.5s18.5 -59 18.5 -93c0 -33.333 -5.83301 -65 -17.5 -95s-28.667 -56.5 -51 -79.5s-49.5 -41.5 -81.5 -55.5s-68.333 -21.667 -109 -23c-41.333 -1.33301 -79.333 4.83398 -114 18.501s-64.834 34 -90.501 61
s-46.167 60.167 -61.5 99.5s-23.666 84 -24.999 134c-0.666992 22 0.166016 47.167 2.49902 75.5s7 57.333 14 87s17.167 58.834 30.5 87.501s31 54.334 53 77.001s48.833 41.167 80.5 55.5s69.5 22.166 113.5 23.499c16.667 0.666992 35.667 -0.833008 57 -4.5
s42.666 -8.83398 63.999 -15.501s42.166 -15 62.499 -25s37.833 -21.333 52.5 -34zM306.003 322.999c-12 -0.666992 -23.3359 -2.99512 -34.0029 -6.99512s-20.5 -8.83301 -29.5 -14.5s-16.833 -11.834 -23.5 -18.501s-12 -12.334 -16 -17.001
c0 -12.667 1.83301 -25.834 5.5 -39.501s9.33398 -26.334 17.001 -38.001s17.334 -21.334 29.001 -29.001s25.5 -11.5 41.5 -11.5c12.667 0 24.667 2.16699 36 6.5s21 10.5 29 18.5s14.333 17.167 19 27.5s7 21.5 7 33.5c0 10 -1.5 20.167 -4.5 30.5s-7.66699 20 -14 29
s-14.666 16.167 -24.999 21.5s-22.833 8 -37.5 8z" />
    <glyph glyph-name="seven" unicode="7" horiz-adv-x="566" 
d="M15 699h541v-133l-269 -566h-216l268 566h-164v-65h-160v198z" />
    <glyph glyph-name="eight" unicode="8" horiz-adv-x="559" 
d="M15 205c0 16 2.5 32.666 7.5 49.999s12.167 34 21.5 50s20.666 30.667 33.999 44s28.333 24 45 32c-25.333 15.333 -44.166 35.333 -56.499 60s-18.5 49 -18.5 73c0 28 5.33301 54 16 78s26.167 44.833 46.5 62.5s45.333 31.5 75 41.5s63.167 15 100.5 15
c38.667 0 72.834 -5 102.501 -15s54.667 -23.833 75 -41.5s35.666 -38.5 45.999 -62.5s15.5 -50 15.5 -78c0 -33.333 -8.5 -61.666 -25.5 -84.999s-36.5 -40.333 -58.5 -51c34 -16.667 59.667 -41.167 77 -73.5s26 -65.5 26 -99.5c0 -30.667 -6.16699 -59.334 -18.5 -86.001
s-30 -49.667 -53 -69s-50.833 -34.666 -83.5 -45.999s-69 -17 -109 -17c-41.333 0 -78.5 5.66699 -111.5 17s-60.833 26.666 -83.5 45.999s-40 42.333 -52 69s-18 55.334 -18 86.001zM188 210.999c0 -12 2.50098 -23.001 7.50098 -33.001s11.667 -18.667 20 -26
s18.166 -13 29.499 -17s23.333 -6 36 -6c24.667 0 46 6.66699 64 20s27.333 34 28 62c0 17.333 -4.5 31.666 -13.5 42.999s-20 20.333 -33 27s-26.833 11.334 -41.5 14.001s-27.667 4.33398 -39 5.00098c-15.333 -8.66699 -28.833 -21 -40.5 -37s-17.5 -33.333 -17.5 -52z
M359.001 521.998c0 18 -7.5 33.002 -22.5 45.002s-32.5 18 -52.5 18c-19.333 0 -36.166 -6.33301 -50.499 -19s-21.5 -27.334 -21.5 -44.001c0 -14 3.66699 -25.167 11 -33.5s16.166 -14.833 26.499 -19.5s21.166 -8 32.499 -10s21 -3 29 -3
c12.667 6 23.834 14.667 33.501 26s14.5 24.666 14.5 39.999z" />
    <glyph glyph-name="nine" unicode="9" horiz-adv-x="587" 
d="M103 200c17.333 -10 38.3291 -21 62.9961 -33s52.334 -18 83.001 -18c37.333 1.33301 67.166 13.333 89.499 36s33.166 56 32.499 100c-13.333 -13.333 -30.333 -24.833 -51 -34.5s-44.334 -15.167 -71.001 -16.5c-32 -1.33301 -62.167 3.16699 -90.5 13.5
s-53.166 25.333 -74.499 45s-38.166 43.5 -50.499 71.5s-18.5 59 -18.5 93c0 33.333 5.83301 65 17.5 95s28.667 56.5 51 79.5s49.5 41.5 81.5 55.5s68.333 21.667 109 23s78.834 -4.83398 114.501 -18.501s66.667 -34 93 -61s47.5 -60.167 63.5 -99.5s24.667 -84 26 -134
c0.666992 -25.333 -0.166016 -52.833 -2.49902 -82.5s-7.33301 -59.167 -15 -88.5s-18.5 -58 -32.5 -86s-32.167 -52.667 -54.5 -74s-49.5 -38.833 -81.5 -52.5s-70 -21.167 -114 -22.5c-16.667 -0.666992 -35.667 0.833008 -57 4.5s-42.666 8.83398 -63.999 15.501
s-42.166 15 -62.499 25s-37.833 21.333 -52.5 34zM274.996 378c12 0.666992 22.834 2.99805 32.501 6.99805s18.334 8.83301 26.001 14.5s14.5 11.667 20.5 18s11 12.166 15 17.499c0 12.667 -1.33301 25.834 -4 39.501s-7.33398 26.334 -14.001 38.001
s-15.334 21.334 -26.001 29.001s-24 11.5 -40 11.5c-12.667 0 -24.667 -2.16699 -36 -6.5s-21 -10.5 -29 -18.5s-14.333 -17.167 -19 -27.5s-7 -21.5 -7 -33.5c0 -10 1.5 -20.167 4.5 -30.5s7.66699 -20 14 -29s14.5 -16.167 24.5 -21.5s22.667 -8 38 -8z" />
    <glyph glyph-name="colon" unicode=":" horiz-adv-x="254" 
d="M15 98c0 12.667 2.33105 25.5 6.99805 38.5s11.834 25 21.501 36s21.334 20 35.001 27s29.5 10.5 47.5 10.5s34 -3.5 48 -10.5s25.833 -16 35.5 -27s17 -23 22 -36s7.5 -25.833 7.5 -38.5c0 -14.667 -2.66699 -28.5 -8 -41.5s-13 -24.167 -23 -33.5
s-22 -16.833 -36 -22.5s-29.333 -8.5 -46 -8.5c-16 0 -30.833 3 -44.5 9s-25.5 14 -35.5 24s-17.667 21.333 -23 34s-8 25.667 -8 39zM14.998 402c0 12.667 2.33105 25.5 6.99805 38.5s11.834 25 21.501 36s21.334 20 35.001 27s29.5 10.5 47.5 10.5s34 -3.5 48 -10.5
s25.833 -16 35.5 -27s17 -23 22 -36s7.5 -25.833 7.5 -38.5c0 -30 -9.83301 -55.167 -29.5 -75.5s-47.5 -30.5 -83.5 -30.5c-15.333 0 -29.833 3 -43.5 9s-25.5 14 -35.5 24s-17.833 21.333 -23.5 34s-8.5 25.667 -8.5 39z" />
    <glyph glyph-name="semicolon" unicode=";" horiz-adv-x="302" 
d="M59 385c0 12.667 2.50098 25.834 7.50098 39.501s12.167 26 21.5 37s21.166 20 35.499 27s30.5 10.5 48.5 10.5s34.167 -3.5 48.5 -10.5s26.5 -16 36.5 -27s17.5 -23.333 22.5 -37s7.5 -26.834 7.5 -39.501c0 -30 -10.167 -55.5 -30.5 -76.5s-48.5 -31.5 -84.5 -31.5
c-16 0 -30.833 3.16699 -44.5 9.5s-25.5 14.5 -35.5 24.5s-18 21.5 -24 34.5s-9 26.167 -9 39.5zM5.00098 -129c18 22 33.499 44.333 46.499 67s23.5 46.834 31.5 72.501s13.5 53.5 16.5 83.5s3.16699 64 0.5 102l182 -48c2 -64.667 -11.667 -126.334 -41 -185.001
s-69.666 -111 -120.999 -157z" />
    <glyph glyph-name="equal" unicode="=" horiz-adv-x="502" 
d="M44 305h412v-133h-412v133zM44 526h412v-133h-412v133z" />
    <glyph glyph-name="question" unicode="?" horiz-adv-x="520" 
d="M2 586c35.333 40.667 75.0029 72.3311 119.003 94.998s91 34 141 34c33.333 0 64.5 -4.33301 93.5 -13s54.167 -21.667 75.5 -39s38.166 -38.666 50.499 -63.999s18.5 -55 18.5 -89c0 -22 -4 -41.167 -12 -57.5s-17.833 -31.166 -29.5 -44.499
s-24.334 -25.166 -38.001 -35.499l-38 -29c-11.667 -9 -21.5 -18 -29.5 -27s-12 -18.5 -12 -28.5v-55h-185l-1 80c0 15.333 4 29.666 12 42.999s17.833 25.833 29.5 37.5s24.334 22.667 38.001 33l38 30c11.667 9.66699 21.5 19 29.5 28s12 18.167 12 27.5
s-2.16699 17 -6.5 23s-10 10.833 -17 14.5s-15 6.16699 -24 7.5s-17.833 2 -26.5 2c-10.667 0 -21.834 -2.33301 -33.501 -7s-23.334 -11 -35.001 -19s-22.667 -16.833 -33 -26.5s-19.833 -19.5 -28.5 -29.5zM129.003 101.997c0 -13.333 2.83398 -26.168 8.50098 -38.501
s13.667 -23.166 24 -32.499s22.5 -17 36.5 -23s29 -9 45 -9c36.667 0 65.667 10.167 87 30.5s32 44.5 32 72.5c0 14 -2.83301 27.5 -8.5 40.5s-13.834 24.333 -24.501 34s-23.167 17.334 -37.5 23.001s-30.5 8.5 -48.5 8.5s-34 -3.16699 -48 -9.5s-26 -14.5 -36 -24.5
s-17.5 -21.333 -22.5 -34s-7.5 -25.334 -7.5 -38.001z" />
    <glyph glyph-name="at" unicode="@" horiz-adv-x="833" 
 />
    <glyph glyph-name="A" unicode="A" horiz-adv-x="823" 
d="M808 0h-401v131h95l-21 68h-205l-21 -68h78v-131h-318v131h68l135 439h-41v129h384l177 -568h70v-131zM313 319h131l-66 216z" />
    <glyph glyph-name="B" unicode="B" horiz-adv-x="687" 
d="M25 0v129.999h58v440h-58v129h373c83.333 0 145 -14.833 185 -44.5s60 -71.834 60 -126.501c0 -21.333 -1.66699 -39.833 -5 -55.5s-8.66602 -29.667 -15.999 -42s-17.333 -23.166 -30 -32.499s-28.334 -17.666 -47.001 -24.999c18 -5.33301 35 -12.5 51 -21.5
s30 -20.5 42 -34.5s21.5 -30.5 28.5 -49.5s10.5 -40.5 10.5 -64.5c0 -70.667 -21.167 -122.167 -63.5 -154.5s-111.833 -48.5 -208.5 -48.5h-380zM370 129.999c21.333 0 40.167 7.5 56.5 22.5s24.5 36.167 24.5 63.5c0 25.333 -7 46.333 -21 63s-35 25 -63 25h-77v-174h80z
M290.001 566.999l-0.000976562 -150h61c26.667 0 44.667 6.83301 54 20.5s14 32.5 14 56.5c0 23.333 -6.16699 41.333 -18.5 54s-28.166 19 -47.499 19h-63z" />
    <glyph glyph-name="C" unicode="C" horiz-adv-x="686" 
d="M671 125c-17.333 -18.667 -36.6699 -36.5 -58.0029 -53.5s-44.666 -32 -69.999 -45s-52.666 -23.333 -81.999 -31s-60.333 -11.5 -93 -11.5c-53.333 0 -101.666 8.16699 -144.999 24.5s-80.333 40 -111 71s-54.5 68.667 -71.5 113s-25.5 94.5 -25.5 150.5
c0 57.333 9.66699 108.833 29 154.5s44 84.334 74 116.001s62.833 55.834 98.5 72.501s69.834 25 102.501 25c24.667 0 46.167 -3 64.5 -9s33.833 -12.833 46.5 -20.5s22.5 -15.334 29.5 -23.001s11.5 -12.834 13.5 -15.501l23 56h157v-284h-179
c-0.666992 16 -3.33398 31.667 -8.00098 47s-11.167 28.833 -19.5 40.5s-19 21 -32 28s-28.5 10.5 -46.5 10.5s-34.333 -5.16699 -49 -15.5s-27.167 -24.5 -37.5 -42.5s-18.333 -39 -24 -63s-8.5 -49.667 -8.5 -77c0 -24.667 3.16699 -48.334 9.5 -71.001
s15.666 -42.667 27.999 -60s27.5 -31.166 45.5 -41.499s39 -15.5 63 -15.5c20.667 0 40.334 4.66699 59.001 14s35 19.833 49 31.5s25.5 22.667 34.5 33s14.5 16.833 16.5 19.5z" />
    <glyph glyph-name="D" unicode="D" horiz-adv-x="720" 
d="M25 0v132.999h62v434h-62v132h305c60.667 0 114.5 -8.83301 161.5 -26.5s86.667 -41.667 119 -72s57 -66.166 74 -107.499s25.5 -86 25.5 -134c0 -114.667 -33 -203.167 -99 -265.5s-161 -93.5 -285 -93.5h-301zM480 358.999c0 26.667 -2.83301 52.501 -8.5 77.501
s-14.5 47.167 -26.5 66.5s-27.5 34.833 -46.5 46.5s-41.833 17.5 -68.5 17.5h-38v-434h38c26.667 0.666992 49.5 6.83398 68.5 18.501s34.5 27.667 46.5 48s20.833 44.166 26.5 71.499s8.5 56.666 8.5 87.999z" />
    <glyph glyph-name="E" unicode="E" horiz-adv-x="653" 
d="M25 699h603v-221h-173v89h-160v-138h190v-133h-190v-163h160v93h173v-226h-603v133h63v434h-63v132z" />
    <glyph glyph-name="F" unicode="F" horiz-adv-x="638" 
d="M25 699h598v-221h-177v89h-151v-174h190v-133h-190v-127h102v-133h-372v133h62v434h-62v132z" />
    <glyph glyph-name="G" unicode="G" horiz-adv-x="776" 
d="M490 63c-11.333 -18.667 -31.332 -35.3359 -59.999 -50.0029s-62.334 -22 -101.001 -22c-44 0 -85 8.16699 -123 24.5s-71.167 39.833 -99.5 70.5s-50.666 67.667 -66.999 111s-24.5 92 -24.5 146c0 54.667 8.66699 104.5 26 149.5s40.333 83.667 69 116
s61.334 57.5 98.001 75.5s74.667 27 114 27c36 0 65.667 -3.66699 89 -11s42.166 -15.666 56.499 -24.999s25.166 -18.666 32.499 -27.999s13 -16 17 -20l21 72h149v-295h-179c-0.666992 20 -4.16699 38 -10.5 54s-14.833 29.333 -25.5 40s-22.667 18.834 -36 24.501
s-27.333 8.5 -42 8.5c-20 0 -38.5 -5.16699 -55.5 -15.5s-31.5 -24 -43.5 -41s-21.333 -37 -28 -60s-10 -46.833 -10 -71.5c0 -25.333 3 -49.166 9 -71.499s14.833 -41.833 26.5 -58.5s26 -29.834 43 -39.501s36.5 -14.5 58.5 -14.5c28.667 0 50 4.83301 64 14.5
s24.667 21.167 32 34.5v42h-61v107h332v-107h-40v-250h-200z" />
    <glyph glyph-name="H" unicode="H" horiz-adv-x="768" 
d="M25 699h324v-132h-62v-151h190v151h-59v132h325v-132h-58v-435h58v-132h-325v132h59v151h-190v-151h62v-132h-324v132h55v435h-55v132z" />
    <glyph glyph-name="I" unicode="I" horiz-adv-x="382" 
d="M25 699h332v-132h-62v-434h62v-133h-332v133h63v434h-63v132z" />
    <glyph glyph-name="J" unicode="J" horiz-adv-x="463" 
d="M20 -61c12.667 -6 27.667 -8.99805 45 -8.99805c24.667 0 44.667 10.667 60 32s23 58.666 23 111.999v494h-86v131h376v-131h-83v-494c0 -44 -5 -83.333 -15 -118s-26.167 -63.834 -48.5 -87.501s-51.5 -41.667 -87.5 -54s-79.667 -18.5 -131 -18.5
c-9.33301 0 -18.5 1 -27.5 3s-17.167 4.66699 -24.5 8z" />
    <glyph glyph-name="K" unicode="K" horiz-adv-x="815" 
d="M340 570h-54v-163l186 163h-72v129h333v-129h-58l-145 -125l202 -315h58v-130h-390v130h68l-108 170l-74 -63v-107h54v-130h-315v130h54v440h-54v129h315v-129z" />
    <glyph glyph-name="L" unicode="L" horiz-adv-x="610" 
d="M25 699h316v-132h-53v-434h129v127h168v-260h-560v133h55v434h-55v132z" />
    <glyph glyph-name="M" unicode="M" horiz-adv-x="1008" 
d="M719 523c-2 -11.333 -4.33301 -23.668 -7 -37.001l-8 -38.5l-7.5 -34c-2.33301 -10.333 -4.5 -18.5 -6.5 -24.5l-105 -389h-209l-56 199.5l-56 199.5c-1.33301 4 -3 10.5 -5 19.5s-4 19.167 -6 30.5s-4 23.333 -6 36s-3.33301 25.334 -4 38.001h-4v-394h57v-129h-271v129
h54v441h-53v129h379l101 -374l96 374h381v-129h-55v-440h55v-130h-316v130h57l-1 334v59h-4z" />
    <glyph glyph-name="N" unicode="N" horiz-adv-x="816" 
d="M791 570h-66v-570h-215l-255 381v-252h77v-129h-307v129h59v441h-58v129h287l246 -367l-1 238h-68v129h301v-129z" />
    <glyph glyph-name="O" unicode="O" horiz-adv-x="740" 
d="M373 -18c-52 0 -99.998 7.66699 -143.998 23s-81.833 38.333 -113.5 69s-56.334 69.167 -74.001 115.5s-26.5 100.833 -26.5 163.5c0 54 8.5 103.333 25.5 148s41 83.167 72 115.5s68 57.333 111 75s90.5 26.5 142.5 26.5c61.333 0 114.5 -8.83301 159.5 -26.5
s82.333 -42.667 112 -75s51.667 -71.5 66 -117.5s21.5 -97 21.5 -153c0 -56.667 -7.66699 -107.5 -23 -152.5s-38 -83.167 -68 -114.5s-66.833 -55.333 -110.5 -72s-93.834 -25 -150.501 -25zM373.002 139c16 0 30.165 5 42.498 15s23 24 32 42s15.833 39.667 20.5 65
s7 53.666 7 84.999c0 30 -2.16699 58.333 -6.5 85s-11 49.834 -20 69.501s-20.333 35.167 -34 46.5s-30.167 17 -49.5 17c-15.333 0 -29.333 -5.16699 -42 -15.5s-23.5 -24.833 -32.5 -43.5s-16 -41 -21 -67s-7.5 -54.333 -7.5 -85c0 -32.667 2.83301 -62.167 8.5 -88.5
s13.334 -48.833 23.001 -67.5s21.334 -33 35.001 -43s28.5 -15 44.5 -15z" />
    <glyph glyph-name="P" unicode="P" horiz-adv-x="640" 
d="M25 699l324 0.00195312c58 0 105 -5.83301 141 -17.5s64 -27.334 84 -47.001s33.5 -42.334 40.5 -68.001s10.5 -52.834 10.5 -81.501c0 -33.333 -7 -62.333 -21 -87s-33 -45.167 -57 -61.5s-51.833 -28.666 -83.5 -36.999s-65.5 -12.5 -101.5 -12.5h-76v-155h61v-132
h-322v132h56v436h-56v131zM286 569.002l-0.000976562 -174h45c29.333 0 53 7.16699 71 21.5s27 34.833 27 61.5c0 30 -8.16699 52.667 -24.5 68s-39.166 23 -68.499 23h-50z" />
    <glyph glyph-name="Q" unicode="Q" horiz-adv-x="755" 
d="M357 0c-50.667 0 -97 7.33008 -139 21.9971s-78 36.834 -108 66.501s-53.333 66.5 -70 110.5s-25 95.667 -25 155c0 50.667 8 97.334 24 140.001s38.833 79.5 68.5 110.5s65.167 55 106.5 72s87 25.5 137 25.5c58.667 0 109.5 -8.5 152.5 -25.5s78.5 -41 106.5 -72
s48.833 -68.333 62.5 -112s20.5 -92.167 20.5 -145.5c0 -106 -27.667 -189.333 -83 -250c4 -15.333 9.16699 -30 15.5 -44s15.833 -21 28.5 -21c8.66699 0 14.167 5.33301 16.5 16s3.5 20.334 3.5 29.001v29h66v-51c0 -22 -3.16699 -42.833 -9.5 -62.5
s-15.666 -36.667 -27.999 -51s-28 -25.666 -47 -33.999s-40.833 -12.5 -65.5 -12.5c-20.667 0 -39.334 3 -56.001 9s-31.334 14.167 -44.001 24.5s-23.667 22.166 -33 35.499s-16.666 27.333 -21.999 42c-24 -4 -50 -6 -78 -6zM357 346.997
c21.333 0 41.3369 -3.66797 60.0039 -11.001s36 -16.666 52 -27.999c0.666992 6 1.16699 12.167 1.5 18.5s0.5 13.166 0.5 20.499c0 28.667 -2.83301 55.667 -8.5 81s-13.834 47.5 -24.501 66.5s-23.334 34 -38.001 45s-31.334 16.5 -50.001 16.5
c-15.333 0 -29.833 -5 -43.5 -15s-25.834 -24 -36.501 -42s-19.167 -39.333 -25.5 -64s-9.5 -51.667 -9.5 -81c0 -21.333 1.33301 -39.666 4 -54.999c11.333 12 26.333 23 45 33s43 15 73 15zM357.004 149.996c18.667 0 36.3301 7.33398 52.9971 22.001
c-3.33301 25.333 -8.66602 45.666 -15.999 60.999s-19.666 23 -36.999 23c-16.667 0 -30.167 -7.16699 -40.5 -21.5s-19.166 -31.5 -26.499 -51.5c20 -22 42.333 -33 67 -33z" />
    <glyph glyph-name="R" unicode="R" horiz-adv-x="737" 
d="M25 699l325.002 -0.000976562c58 0 105 -5.33301 141 -16s64.167 -25.334 84.5 -44.001s34 -40.5 41 -65.5s10.5 -51.833 10.5 -80.5c0 -19.333 -3.66699 -37.333 -11 -54s-17.5 -31.167 -30.5 -43.5s-28.333 -22.666 -46 -30.999s-36.834 -13.833 -57.501 -16.5
c17.333 -2.66699 33.833 -8.16699 49.5 -16.5s29.5 -18.833 41.5 -31.5s21.667 -27 29 -43s11 -33 11 -51c0 -21.333 1.66699 -38 5 -50s9.66602 -18 18.999 -18c15.333 0 23 10.667 23 32v33h67v-55c0 -20.667 -2.33301 -40.667 -7 -60s-12.667 -36.333 -24 -51
s-26.333 -26.5 -45 -35.5s-42 -13.5 -70 -13.5c-66 0 -114.833 16.333 -146.5 49s-47.5 78.334 -47.5 137.001c0 22.667 -1 41.334 -3 56.001s-6.5 26.167 -13.5 34.5s-17.167 14.166 -30.5 17.499s-31 5 -53 5v-155h61v-132h-323v132h56v436h-56v131zM287.002 568.999
l0.000976562 -170.001h45c29.333 0 52.666 6.83301 69.999 20.5s26 33.834 26 60.501c0 30 -7.83301 52.333 -23.5 67s-38.167 22 -67.5 22h-50z" />
    <glyph glyph-name="S" unicode="S" horiz-adv-x="710" 
d="M25 0l-0.00683594 252h186c0 -21.333 4.66699 -38.333 14 -51s20.5 -22.5 33.5 -29.5s26.667 -11.833 41 -14.5s26.833 -4.33398 37.5 -5.00098c8.66699 0 18 0.666992 28 2s19.167 3.83301 27.5 7.5s15.333 8.66699 21 15s8.5 14.833 8.5 25.5
c0 12.667 -9.5 23.167 -28.5 31.5s-42.667 16.5 -71 24.5s-59.166 17.167 -92.499 27.5s-64.166 24.5 -92.499 42.5s-52 40.833 -71 68.5s-28.5 62.834 -28.5 105.501c0 36.667 7.83301 68.667 23.5 96s35.334 49.666 59.001 66.999s49.334 30.333 77.001 39
s53.834 13 78.501 13c20.667 0 41.334 -1.83301 62.001 -5.5s40.334 -9.5 59.001 -17.5s35.5 -18.5 50.5 -31.5s27.5 -28.833 37.5 -47.5l10 84h172v-251h-181c0 18.667 -3.33301 35.167 -10 49.5s-15.834 26.5 -27.501 36.5s-25.334 17.5 -41.001 22.5
s-32.167 7.5 -49.5 7.5c-7.33301 0 -15 -1.16699 -23 -3.5s-15.5 -5.66602 -22.5 -9.99902s-12.667 -9.83301 -17 -16.5s-6.5 -14.334 -6.5 -23.001c0 -17.333 9.83301 -31.666 29.5 -42.999s44.167 -22 73.5 -32l95 -32.5c34 -11.667 65.667 -26.167 95 -43.5
s53.833 -39 73.5 -65s29.5 -58.667 29.5 -98s-8.16699 -72.333 -24.5 -99s-37.333 -48.5 -63 -65.5s-54.167 -29.167 -85.5 -36.5s-62 -11 -92 -11c-25.333 0 -48.666 2.66699 -69.999 8s-40.666 12.333 -57.999 21s-32.833 18.5 -46.5 29.5s-25.167 22.167 -34.5 33.5
l-11 -77h-175z" />
    <glyph glyph-name="T" unicode="T" horiz-adv-x="701" 
d="M686 699v-260h-147v128h-84v-434h83v-133h-372v133h82v434h-86v-128h-147v260h671z" />
    <glyph glyph-name="U" unicode="U" horiz-adv-x="737" 
d="M15 699l318.001 -0.00195312v-129h-54v-216c0 -40 2.16699 -72.667 6.5 -98s10.833 -45.166 19.5 -59.499s19.167 -24.166 31.5 -29.499s26.5 -8 42.5 -8c15.333 0 29.166 2.16699 41.499 6.5s23 13.333 32 27s15.833 33.334 20.5 59.001s7 60.167 7 103.5v212h-54v132
h296v-129h-54v-243c0 -118.667 -24.333 -205.667 -73 -261s-120 -83 -214 -83c-101.333 3.33301 -178.333 32.166 -231 86.499s-79 138.5 -79 252.5v247h-56v130z" />
    <glyph glyph-name="V" unicode="V" horiz-adv-x="773" 
d="M425 224c1.33301 14 5.16699 32.333 11.5 55s14.5 46.667 24.5 72l91 218h-52l-1 130h284v-130h-49l-240 -569h-184l-265 569h-55v130h369l-1 -130h-54l85 -224c8 -24.667 14.833 -47.5 20.5 -68.5s9.16699 -38.5 10.5 -52.5h5z" />
    <glyph glyph-name="W" unicode="W" horiz-adv-x="1015" 
d="M325 226c0.666992 6.66699 2.66895 19.001 6.00195 37.001l12 62l15 74l16 75l50 225h208l63 -276c3.33301 -16 6.66602 -33 9.99902 -51s6.16602 -35.667 8.49902 -53l6.5 -50c2 -16 3.66699 -30.333 5 -43h5c0.666992 11.333 2.33398 25.666 5.00098 42.999l8.5 53.5
l9 53l7.5 41.5l34 152h-55v130h286v-130h-55l-149 -569h-237l-60 238l-7 29.5c-2.66699 11 -5 22.167 -7 33.5l-6 33c-2 10.667 -3.66699 20 -5 28h-4c-1.33301 -7.33301 -2.83301 -16.5 -4.5 -27.5s-3.66699 -22.333 -6 -34l-7 -33.5
c-2.33301 -10.667 -4.5 -19.667 -6.5 -27l-61 -240h-232l-132 569h-56v130h330v-130h-58l26 -146c2.66699 -12 5.66699 -27.667 9 -47s6.5 -38.833 9.5 -58.5s5.66699 -38 8 -55s4.16602 -29.167 5.49902 -36.5h5z" />
    <glyph glyph-name="X" unicode="X" horiz-adv-x="835" 
d="M357 0h-332v129h87l147 191l-181 249h-52v130h396v-130h-58l98 -133l102 133h-88v130h332v-130h-85l-151 -193l180 -246h58v-130h-399v130h57l-76 102l-21 28l-103 -131h89v-129z" />
    <glyph glyph-name="Y" unicode="Y" horiz-adv-x="669" 
d="M373 384c0.666992 4.66699 2.5 10.667 5.5 18s6.33301 15 10 23l11.5 24c4 8 7.33301 15 10 21l55 101h-55v128h269v-128h-54l-185 -325v-116h56v-130h-320v130h57v118l-194 323h-49v128h342v-128h-52l58 -106c1.33301 -4.66699 3.5 -10.667 6.5 -18l9.5 -23
c3.33301 -8 6.33301 -15.667 9 -23s4.66699 -13 6 -17h4z" />
    <glyph glyph-name="Z" unicode="Z" horiz-adv-x="714" 
d="M31 436v263h656l2 -133l-366 -434h185l1 128h177v-260h-661v130l364 437l-189 -1l1 -130h-170z" />
    <glyph glyph-name="bracketleft" unicode="[" horiz-adv-x="720" 
d="M29 700l324 -0.000976562c58 0 105 -6.5 141 -19.5s64 -30.167 84 -51.5s33.5 -45.666 40.5 -72.999s10.5 -55.333 10.5 -84c0 -37.333 -10 -69.833 -30 -97.5s-46 -50.167 -78 -67.5l112 -177h58v-130h-192l-166 268h-43v-136h61v-132h-322v132h56v436h-56v132z
M290 568.999l-0.000976562 -174h45c29.333 0 53 7.16699 71 21.5s27 34.833 27 61.5c0 30 -8.16699 52.667 -24.5 68s-39.166 23 -68.499 23h-50z" />
    <glyph glyph-name="backslash" unicode="\" horiz-adv-x="653" 
 />
    <glyph glyph-name="bracketright" unicode="]" horiz-adv-x="647" 
d="M30 0v130h41v489h-41v131h231v-452l116 69h-72v133h280v-133h-77l-63 -37l139 -199h41v-131h-162l-168 239l-35 -24v-84h71v-131h-301z" />
    <glyph glyph-name="a" unicode="a" horiz-adv-x="600" 
d="M36 458c10 6 22.667 13.001 38 21.001s32.5 15.833 51.5 23.5s39.333 14 61 19s44.167 7.5 67.5 7.5c30 0 61 -3.16699 93 -9.5s61.167 -17.333 87.5 -33s48 -36.834 65 -63.501s25.5 -60 25.5 -100v-195h60v-128h-214l-24 45
c-9.33301 -12.667 -19.833 -23.167 -31.5 -31.5s-23.667 -14.833 -36 -19.5s-24.5 -8 -36.5 -10s-22.333 -3 -31 -3c-24 0 -47.667 3.33301 -71 10s-44.333 16.667 -63 30s-33.834 30.5 -45.501 51.5s-17.5 46.167 -17.5 75.5c0 28 5.5 53.333 16.5 76s26 42 45 58
s41.167 28.333 66.5 37s52 13 80 13c14.667 0 27.834 -1.5 39.501 -4.5s21.667 -6.5 30 -10.5s15 -8 20 -12s8.16699 -6.66699 9.5 -8v35c0 22.667 -9 37.667 -27 45s-40.667 11 -68 11c-30 0 -57.5 -5 -82.5 -15s-47.167 -20.333 -66.5 -31zM258 111.001
c15.333 0 28.667 3.66797 40 11.001s19.333 14.666 24 21.999v38c-0.666992 1.33301 -2.16699 3.5 -4.5 6.5s-5.83301 6.16699 -10.5 9.5s-10.5 6.33301 -17.5 9s-15.833 4 -26.5 4c-20 0 -34.667 -5 -44 -15s-14 -22.667 -14 -38c0 -14 5 -25.333 15 -34s22.667 -13 38 -13
z" />
    <glyph glyph-name="b" unicode="b" horiz-adv-x="656" 
d="M31 0v130.002h42v489h-42v131h242v-289c5.33301 6.66699 12.833 12.834 22.5 18.501s20.5 10.667 32.5 15s24.667 7.66602 38 9.99902s26 3.5 38 3.5c38 0 71.5 -7.33301 100.5 -22s53.167 -34.167 72.5 -58.5s33.833 -52.333 43.5 -84s14.167 -64.167 13.5 -97.5
c-0.666992 -38.667 -6.5 -73.834 -17.5 -105.501s-26.5 -58.667 -46.5 -81s-44 -39.666 -72 -51.999s-59.667 -18.5 -95 -18.5c-19.333 0 -35.666 1.16699 -48.999 3.5s-25 5.66602 -35 9.99902s-18.833 9.16602 -26.5 14.499s-14.834 11 -21.501 17l-15 -34h-225z
M414 244.002c0 14.667 -1.66699 29.5 -5 44.5s-8.16602 28.167 -14.499 39.5s-14 20.666 -23 27.999s-18.833 11 -29.5 11c-10 0 -19.5 -3 -28.5 -9s-16.833 -14.5 -23.5 -25.5s-11.834 -24.333 -15.501 -40s-4.83398 -33.5 -3.50098 -53.5c0 -17.333 2 -33.166 6 -47.499
s9.33301 -27 16 -38s14.334 -19.5 23.001 -25.5s17.667 -9 27 -9c21.333 0 38.5 11.333 51.5 34s19.5 53 19.5 91z" />
    <glyph glyph-name="c" unicode="c" horiz-adv-x="531" 
d="M360 274c-0.666992 12 -2.16992 24.1729 -4.50293 36.5059s-5.83301 23.666 -10.5 33.999s-11 18.666 -19 24.999s-17.667 9.5 -29 9.5c-14.667 0 -27.5 -3.66699 -38.5 -11s-20.167 -17 -27.5 -29s-12.833 -25.667 -16.5 -41s-5.5 -31 -5.5 -47
c0 -32.667 9.16699 -60.334 27.5 -83.001s43.5 -34.334 75.5 -35.001c26.667 -0.666992 49.334 4.16602 68.001 14.499s36.334 24.5 53.001 42.5l88 -102c-12 -12.667 -26.333 -25.167 -43 -37.5s-35.5 -23.166 -56.5 -32.499s-43.833 -17 -68.5 -23s-50.334 -9 -77.001 -9
c-36.667 0 -71.667 5.5 -105 16.5s-62.5 27.667 -87.5 50s-45 50.166 -60 83.499s-22.5 72.333 -22.5 117c0 44 6.83301 82.167 20.5 114.5s31.834 59 54.501 80s48.834 36.5 78.501 46.5s60.5 15 92.5 15c16.667 0 31.834 -2 45.501 -6s25.667 -9 36 -15
s19.166 -12.333 26.499 -19s13 -12.334 17 -17.001l17 48h118v-226h-147v0z" />
    <glyph glyph-name="d" unicode="d" horiz-adv-x="634" 
d="M368 620h-46v130h249v-620h48v-130h-234l-17 37c-3.33301 -3.33301 -8.5 -7.5 -15.5 -12.5s-15.833 -10 -26.5 -15s-23 -9.33301 -37 -13s-29.667 -5.5 -47 -5.5c-35.333 0 -67.333 7.16699 -96 21.5s-53 33.666 -73 57.999s-35.5 52.5 -46.5 84.5
s-16.5 65.333 -16.5 100c0 38.667 6.33301 73.834 19 105.501s29.667 58.5 51 80.5s46 39 74 51s57.333 18 88 18c35.333 0 62.833 -4.83301 82.5 -14.5s34.167 -17.5 43.5 -23.5v148zM225 255c0 -15.333 1.66992 -30.335 5.00293 -45.002s8.16602 -27.667 14.499 -39
s13.833 -20.666 22.5 -27.999s18.667 -11 30 -11c10 0 19.5 3 28.5 9s16.833 14.5 23.5 25.5s11.667 24.333 15 40s4.66602 33.5 3.99902 53.5c0 16.667 -2 32.334 -6 47.001s-9.33301 27.5 -16 38.5s-14.334 19.5 -23.001 25.5s-17.667 9 -27 9
c-21.333 0 -38.5 -11.333 -51.5 -34s-19.5 -53 -19.5 -91z" />
    <glyph glyph-name="e" unicode="e" horiz-adv-x="542" 
d="M527 69c-37.333 -32 -76.6699 -54.501 -118.003 -67.501s-88 -19.5 -140 -19.5c-31.333 0 -62.666 5.16699 -93.999 15.5s-59.5 26.333 -84.5 48s-45.5 49.667 -61.5 84s-24 75.5 -24 123.5c0 40.667 7 77.167 21 109.5s33 59.833 57 82.5s52.333 39.834 85 51.501
s68 17.5 106 17.5c30 0 57.833 -3.66699 83.5 -11s48.834 -17.333 69.501 -30s38.334 -28 53.001 -46s25.667 -37.333 33 -58c2.66699 -8.66699 5.33398 -19.667 8.00098 -33s4.5 -27.666 5.5 -42.999s0.666992 -31.166 -1 -47.499s-5.16699 -31.5 -10.5 -45.5h-315
c1.33301 -6.66699 3.5 -14.667 6.5 -24s8.16699 -18.333 15.5 -27s17.333 -16 30 -22s29.667 -9 51 -9c8.66699 0 18.167 0.333008 28.5 1s21.5 2.66699 33.5 6s24.667 8.16602 38 14.499s26.666 15.166 39.999 26.499zM279.996 378.999
c-15.333 0 -27.832 -3.00293 -37.499 -9.00293s-17.334 -13.167 -23.001 -21.5s-9.66699 -17.166 -12 -26.499s-3.83301 -17 -4.5 -23h151c0 9.33301 -1 18.833 -3 28.5s-5.5 18.334 -10.5 26.001s-12.333 13.834 -22 18.501s-22.5 7 -38.5 7z" />
    <glyph glyph-name="f" unicode="f" horiz-adv-x="386" 
d="M351 628c-5.33301 2.66699 -12.501 4.99902 -21.501 6.99902s-20.167 3 -33.5 3c-21.333 0 -32 -17.667 -32 -53v-85h91v-130h-91v-239h60v-131h-298v131h40v239h-41v130h41v85c0 14 1.83301 31.5 5.5 52.5s12.334 41.167 26.001 60.5s33.5 35.833 59.5 49.5
s61.667 20.5 107 20.5c12.667 0 26.334 -0.666992 41.001 -2s28.667 -3.16602 42 -5.49902s25.666 -5 36.999 -8s20.333 -6.16699 27 -9.5z" />
    <glyph glyph-name="g" unicode="g" horiz-adv-x="640" 
d="M77 -6c6 -5.33301 14.8369 -11.499 26.5039 -18.499s25.167 -14 40.5 -21s32.166 -12.833 50.499 -17.5s37.166 -7 56.499 -7c22.667 0 41.334 3 56.001 9s26.5 13.5 35.5 22.5s15.333 19 19 30s5.5 21.833 5.5 32.5v34c-3.33301 -4.66699 -8.33301 -10.167 -15 -16.5
s-14.834 -12.333 -24.501 -18s-21 -10.5 -34 -14.5s-27.5 -6 -43.5 -6c-43.333 0 -80.166 7.16699 -110.499 21.5s-55 33.166 -74 56.499s-33 50 -42 80s-13.5 60.667 -13.5 92c0 38.667 5.33301 73.834 16 105.501s26.5 58.667 47.5 81s47.167 39.666 78.5 51.999
s67.666 18.5 108.999 18.5c22 0 42.667 -4.33301 62 -13s34 -18 44 -28l20 31h238v-131h-60v-299c0 -41.333 -6.33301 -78.833 -19 -112.5s-32 -62.5 -58 -86.5s-58.5 -42.667 -97.5 -56s-84.833 -20 -137.5 -20c-27.333 0 -52.833 3 -76.5 9s-45.334 13.333 -65.001 22
s-36.834 18.167 -51.501 28.5s-26.667 19.833 -36 28.5zM223.004 255.001c0 -15.333 1.66992 -30.335 5.00293 -45.002s8.16602 -27.667 14.499 -39s13.833 -20.666 22.5 -27.999s18.667 -11 30 -11c10 0 19.5 3 28.5 9s16.833 14.5 23.5 25.5s11.667 24.333 15 40
s4.66602 33.5 3.99902 53.5c0 16.667 -2 32.334 -6 47.001s-9.33301 27.5 -16 38.5s-14.334 19.5 -23.001 25.5s-17.667 9 -27 9c-21.333 0 -38.5 -11.333 -51.5 -34s-19.5 -53 -19.5 -91z" />
    <glyph glyph-name="h" unicode="h" horiz-adv-x="661" 
d="M339 0l-313.998 -0.00195312v131h42v489h-42v130h242v-312c2.66699 4.66699 9 11.334 19 20.001s22.167 17.5 36.5 26.5s30.333 16.833 48 23.5s35.5 10 53.5 10c38.667 0 69.5 -6.5 92.5 -19.5s40.667 -30 53 -51s20.333 -44.667 24 -71s5.5 -52.5 5.5 -78.5v-167h47
v-131h-257v272c0 8.66699 -0.333008 18.334 -1 29.001s-2.83398 20.667 -6.50098 30s-9.5 17.333 -17.5 24s-19.333 10 -34 10c-12.667 0 -23.167 -2.83301 -31.5 -8.5s-14.833 -13 -19.5 -22s-7.83398 -19 -9.50098 -30s-2.5 -21.833 -2.5 -32.5v-141h72v-131z" />
    <glyph glyph-name="i" unicode="i" horiz-adv-x="330" 
d="M305 0h-280v131h42v239h-42v130h232v-369h48v-131zM53 646c0 11.333 2.33301 23 7 35s11.5 23 20.5 33s20.333 18.167 34 24.5s29.167 9.5 46.5 9.5s32.833 -3.16699 46.5 -9.5s25.167 -14.5 34.5 -24.5s16.5 -21 21.5 -33s7.5 -23.667 7.5 -35
c0 -28 -9.33301 -51.833 -28 -71.5s-46 -29.5 -82 -29.5c-16 0 -30.5 3 -43.5 9s-24.333 13.833 -34 23.5s-17.167 20.5 -22.5 32.5s-8 24 -8 36z" />
    <glyph glyph-name="j" unicode="j" horiz-adv-x="360" 
d="M128 370l-42.001 -0.000976562v130h232v-430c0 -31.333 -3.33301 -63.333 -10 -96s-20.667 -62.667 -42 -90s-52 -49.666 -92 -66.999s-93.333 -26 -160 -26v134c28.667 0 50.834 5.33301 66.501 16s27 23.5 34 38.5s11 30.833 12 47.5s1.5 31 1.5 43v300z
M113.999 645.999c0 11.333 2.33301 23 7 35s11.5 23 20.5 33s20.333 18.167 34 24.5s29.167 9.5 46.5 9.5s32.833 -3.16699 46.5 -9.5s25.167 -14.5 34.5 -24.5s16.5 -21 21.5 -33s7.5 -23.667 7.5 -35c0 -28 -9.33301 -51.833 -28 -71.5s-46 -29.5 -82 -29.5
c-16 0 -30.5 3 -43.5 9s-24.333 13.833 -34 23.5s-17.167 20.5 -22.5 32.5s-8 24 -8 36z" />
    <glyph glyph-name="k" unicode="k" horiz-adv-x="654" 
d="M38 0v130h41v489h-41v131h231v-452l116 69h-72v132h280v-132h-77l-68 -43l135 -193h50v-131h-296v131h42l-76 108l-35 -24v-84h37v-131h-267z" />
    <glyph glyph-name="l" unicode="l" horiz-adv-x="332" 
d="M317 0h-292v131h43v490h-42v129h232v-619h59v-131z" />
    <glyph glyph-name="m" unicode="m" horiz-adv-x="908" 
d="M322 0h-296.998v131h42v236h-42v132h189l22 -59l17.5 19.5c7.66699 8.33301 16.834 16.5 27.501 24.5s22.667 14.833 36 20.5s28 8.5 44 8.5c25.333 0 46.5 -2.66699 63.5 -8s31.167 -11.666 42.5 -18.999s20.333 -15.166 27 -23.499s12 -15.5 16 -21.5
c15.333 17.333 35 33.666 59 48.999s53.333 23 88 23c40.667 0 73.167 -6.83301 97.5 -20.5s43.166 -31.667 56.499 -54s22.166 -47.833 26.499 -76.5s6.5 -58.334 6.5 -89.001v-138h49v-135h-254v245c0 12 0.166992 25.167 0.5 39.5s-0.333984 27.833 -2.00098 40.5
s-5.16699 23.167 -10.5 31.5s-14 12.5 -26 12.5c-21.333 0 -35.5 -6.83301 -42.5 -20.5s-10.5 -31.167 -10.5 -52.5v-162h60v-134h-259v255c0 40.667 -2 69.834 -6 87.501s-16 26.5 -36 26.5c-16 0 -27.5 -4.83301 -34.5 -14.5s-10.5 -24.834 -10.5 -45.501v-178h60v-131z
" />
    <glyph glyph-name="n" unicode="n" horiz-adv-x="647" 
d="M333 0l-308 -0.000976562v131h42v239h-42v130h213l23 -62c17.333 23.333 37.5 42.5 60.5 57.5s50.5 22.5 82.5 22.5c38.667 0 69.834 -6.5 93.501 -19.5s42 -30 55 -51s21.667 -44.667 26 -71s6.5 -52.5 6.5 -78.5v-167h47v-131h-252v273
c0 8.66699 -0.166992 18.334 -0.5 29.001s-2.16602 20.667 -5.49902 30s-8.83301 17.333 -16.5 24s-18.834 10 -33.501 10c-12.667 0 -23.167 -2.83301 -31.5 -8.5s-14.833 -13 -19.5 -22s-7.83398 -19 -9.50098 -30s-2.5 -21.833 -2.5 -32.5v-142h72v-131z" />
    <glyph glyph-name="o" unicode="o" horiz-adv-x="574" 
d="M290 -13c-36 0 -70.8379 5.5 -104.505 16.5s-63.5 27.5 -89.5 49.5s-46.833 49.667 -62.5 83s-23.167 72 -22.5 116c0 42 7.83301 79.167 23.5 111.5s36.334 59.5 62.001 81.5s54.834 38.667 87.501 50s66.334 17 101.001 17
c39.333 -0.666992 75.833 -6.83398 109.5 -18.501s62.834 -28.834 87.501 -51.501s44.167 -50.167 58.5 -82.5s21.833 -69.5 22.5 -111.5c0.666992 -41.333 -6.16602 -78.166 -20.499 -110.499s-33.833 -59.666 -58.5 -81.999s-53.667 -39.333 -87 -51s-69 -17.5 -107 -17.5
zM289.995 115c10.667 0 20.167 3.33301 28.5 10s15.5 16 21.5 28s10.5 26.167 13.5 42.5s4.5 33.833 4.5 52.5c0 38 -6.33301 69.667 -19 95s-30.667 38.333 -54 39c-10 0 -19.167 -3.33301 -27.5 -10s-15.5 -16 -21.5 -28s-10.833 -26 -14.5 -42s-5.5 -33 -5.5 -51
c0 -41.333 7 -74.333 21 -99s31.667 -37 53 -37z" />
    <glyph glyph-name="p" unicode="p" horiz-adv-x="638" 
d="M413 244c0 14.667 -1.66699 29.5 -5 44.5s-8.16602 28.167 -14.499 39.5s-14 20.666 -23 27.999s-18.833 11 -29.5 11c-10 0 -19.5 -3 -28.5 -9s-16.833 -14.5 -23.5 -25.5s-11.834 -24.333 -15.501 -40s-4.83398 -33.5 -3.50098 -53.5c0 -17.333 2 -33.166 6 -47.499
s9.33301 -27 16 -38s14.334 -19.5 23.001 -25.5s17.667 -9 27 -9c21.333 0 38.5 11.333 51.5 34s19.5 53 19.5 91zM25 -73l41.998 0.00195312v440h-42v133h229l17 -35c4.66699 3.33301 10.834 7.5 18.501 12.5s16.5 9.66699 26.5 14s21.333 8.16602 34 11.499s26.667 5 42 5
c38.667 0 72.834 -7 102.501 -21s54.334 -33 74.001 -57s34.5 -51.833 44.5 -83.5s15 -65.167 15 -100.5c0 -40 -5.83301 -75.833 -17.5 -107.5s-27.667 -58.5 -48 -80.5s-44.5 -39 -72.5 -51s-58 -18 -90 -18c-20.667 0 -38.834 1.66699 -54.501 5s-28.667 7.33301 -39 12
s-18.5 9.16699 -24.5 13.5s-10 7.16602 -12 8.49902v-101h54v-131h-299v131z" />
    <glyph glyph-name="q" unicode="q" horiz-adv-x="660" 
d="M383 257c0 14.667 -1.66699 29.5 -5 44.5s-8.16602 28.167 -14.499 39.5s-14 20.666 -23 27.999s-18.833 11 -29.5 11c-10 0 -19.5 -3 -28.5 -9s-16.833 -14.5 -23.5 -25.5s-11.834 -24.333 -15.501 -40s-4.83398 -33.5 -3.50098 -53.5c0 -17.333 2 -33.166 6 -47.499
s9.33301 -27 16 -38s14.334 -19.5 23.001 -25.5s17.667 -9 27 -9c21.333 0 38.5 11.333 51.5 34s19.5 53 19.5 91zM318 -99l64.999 -0.000976562v132c-11.333 -9.33301 -28 -18.666 -50 -27.999s-48 -14 -78 -14c-32 0 -62 6.16699 -90 18.5s-52.333 29.833 -73 52.5
s-37 50.167 -49 82.5s-18 68.5 -18 108.5c0 43.333 6.16699 81 18.5 113s29.333 58.667 51 80s47 37.333 76 48s60.167 16 93.5 16c32.667 0 59.334 -5 80.001 -15s33.667 -18.333 39 -25l19 30h233v-130h-49v-466h49v-134h-317v131z" />
    <glyph glyph-name="r" unicode="r" horiz-adv-x="414" 
d="M308 0h-283v131h44v239h-43v130h188l30 -64c6.66699 12 13.667 23.333 21 34s16.666 20.167 27.999 28.5s25.333 14.833 42 19.5s38 7 64 7v-180c-45.333 0 -80.166 -7.5 -104.499 -22.5s-36.5 -44.5 -36.5 -88.5v-103h50v-131z" />
    <glyph glyph-name="s" unicode="s" horiz-adv-x="508" 
d="M15 0l0.00292969 180.004h134c0 -13.333 4.16699 -24.333 12.5 -33s18.166 -15.5 29.499 -20.5s23 -8.5 35 -10.5s21.667 -3 29 -3c10 0 19.833 2.16699 29.5 6.5s14.5 13.5 14.5 27.5c0 7.33301 -4.33301 13.5 -13 18.5s-19.834 9.5 -33.501 13.5
s-29.334 8.16699 -47.001 12.5s-35.5 9.5 -53.5 15.5c-17.333 6 -33.833 13.333 -49.5 22s-29.834 19.334 -42.501 32.001s-22.667 27.667 -30 45s-11 37.666 -11 60.999c0 25.333 5.83301 47.166 17.5 65.499s26.334 33.333 44.001 45s36.667 20.334 57 26.001
s39.5 8.5 57.5 8.5c34 0 64.667 -7.66699 92 -23s46.333 -33.666 57 -54.999l8 66h123v-180h-130c0 10.667 -3 20.5 -9 29.5s-13.833 17 -23.5 24s-20.5 12.5 -32.5 16.5s-24.333 6 -37 6c-10.667 0 -19.834 -2.83301 -27.501 -8.5s-11.5 -14.834 -11.5 -27.501
c0 -7.33301 3.33301 -13.5 10 -18.5s15.834 -9.83301 27.501 -14.5s24.834 -9.33398 39.501 -14.001l46 -15c18.667 -6.66699 37.667 -13.834 57 -21.501s36.666 -17.334 51.999 -29.001s27.833 -26.334 37.5 -44.001s14.5 -39.5 14.5 -65.5
c0 -23.333 -5.16699 -44.333 -15.5 -63s-24 -34.5 -41 -47.5s-36.833 -22.833 -59.5 -29.5s-46 -10 -70 -10c-36 0 -67.5 7.33301 -94.5 22s-46.5 31.667 -58.5 51l-9 -61h-125z" />
    <glyph glyph-name="t" unicode="t" horiz-adv-x="363" 
d="M15 500l53.999 -0.00195312v92l184 59v-151h95v-130h-95v-178c0 -8.66699 -0.166992 -17.667 -0.5 -27s0.333984 -18 2.00098 -26s4.66699 -14.5 9 -19.5s11.5 -7.5 21.5 -7.5c6.66699 0 16.5 1.83301 29.5 5.5s24.167 7.5 33.5 11.5v-128
c-7.33301 -3.33301 -16.666 -6.16602 -27.999 -8.49902s-23 -4.16602 -35 -5.49902s-23.167 -2.5 -33.5 -3.5s-18.5 -1.5 -24.5 -1.5c-37.333 0 -66.5 5 -87.5 15s-36.5 24 -46.5 42s-16.333 40 -19 66s-4.33398 55 -5.00098 87v178h-54v130z" />
    <glyph glyph-name="u" unicode="u" horiz-adv-x="631" 
d="M15 500l242.001 -0.000976562v-241c0 -43.333 3.83301 -75.166 11.5 -95.499s21.834 -30.5 42.501 -30.5c17.333 0 32.166 7 44.499 21s18.5 32.333 18.5 55v159h-66v132h259v-367h49v-133h-189l-27 63l-19.5 -22.5c-7.66699 -9 -17 -17.5 -28 -25.5
s-24.167 -14.833 -39.5 -20.5s-33.666 -8.5 -54.999 -8.5c-38 0 -69.833 5 -95.5 15s-46.334 25 -62.001 45s-26.834 45.333 -33.501 76s-10 66.667 -10 108v138h-42v132z" />
    <glyph glyph-name="v" unicode="v" horiz-adv-x="613" 
d="M330 162c0 5.33301 0.830078 12.167 2.49707 20.5s3.83398 17.5 6.50098 27.5s5.83398 20.333 9.50098 31s7.5 21 11.5 31l48 101h-53v127h258v-127h-52l-173 -373h-155l-186 373h-47v127h304v-127h-50l46 -106c6.66699 -19.333 12.334 -39 17.001 -59
s7.66699 -35.333 9 -46h4z" />
    <glyph glyph-name="w" unicode="w" horiz-adv-x="872" 
d="M284 153c0.666992 10 1.83398 23.3291 3.50098 39.9961s4 35.334 7 56.001s7 42.834 12 66.501s11.167 47.834 18.5 72.501l32 112h185l38 -130c6 -19.333 11.5 -39.833 16.5 -61.5s9.16699 -42.5 12.5 -62.5s6.16602 -38.333 8.49902 -55
s4.16602 -29.334 5.49902 -38.001h2c0.666992 8 1.83398 18.167 3.50098 30.5l5.5 40.5c2 14.667 4.5 29.5 7.5 44.5s6.5 29.167 10.5 42.5l17 59h-41v130h244v-130h-41l-117 -370h-211l-69 226l-72 -226h-206l-113 370h-43v130h269v-130h-34l22 -73
c3.33301 -12 6.5 -24.833 9.5 -38.5s5.5 -27.167 7.5 -40.5s3.66699 -25.666 5 -36.999s2.33301 -20.666 3 -27.999h2z" />
    <glyph glyph-name="x" unicode="x" horiz-adv-x="649" 
d="M375 500h255v-125h-66l-106 -107l126 -144h47v-124h-319v124h47l-76 81l-72 -81h65v-124h-256v124h67l102 115l-124 136h-45v125h324v-125h-47l70 -76l75 76h-67v125z" />
    <glyph glyph-name="y" unicode="y" horiz-adv-x="580" 
d="M382 373l-46.002 0.00292969v127h254v-124h-48l-190 -462c-7.33301 -15.333 -15.833 -31.333 -25.5 -48s-22.5 -32 -38.5 -46s-36.167 -25.333 -60.5 -34s-54.5 -13 -90.5 -13c-26 1.33301 -48.833 6.66602 -68.5 15.999s-37.167 20.666 -52.5 33.999l75 118
c8.66699 -7.33301 17.834 -14.333 27.501 -21s19.834 -11 30.501 -13c8 -1.33301 15.333 -0.833008 22 1.5s12.667 6.16602 18 11.499s10 11.5 14 18.5s7.33301 14.167 10 21.5l14 42l-195 370h-41v128h308v-127h-47l65 -156z" />
    <glyph glyph-name="z" unicode="z" horiz-adv-x="553" 
d="M25 300v200h495v-129l-238 -240h105v68h141v-199h-503v131l241 240h-111v-71h-130z" />
    <glyph glyph-name="ring" unicode="&#x2da;" horiz-adv-x="833" 
 />
    <glyph glyph-name="endash" unicode="&#x2013;" horiz-adv-x="447" 
d="M32 305h377v-133h-377v133z" />
    <glyph glyph-name="emdash" unicode="&#x2014;" horiz-adv-x="631" 
d="M42 305h539v-133h-539v133z" />
    <glyph glyph-name="bullet" unicode="&#x2022;" horiz-adv-x="348" 
d="M60 322c0 12.667 2.50195 25.834 7.50195 39.501s12.167 26 21.5 37s21.166 20 35.499 27s30.5 10.5 48.5 10.5s34.167 -3.5 48.5 -10.5s26.5 -16 36.5 -27s17.5 -23.333 22.5 -37s7.5 -26.834 7.5 -39.501c0 -30 -9.66699 -55.5 -29 -76.5s-48 -31.5 -86 -31.5
c-16.667 0 -31.834 3.16699 -45.501 9.5s-25.5 14.5 -35.5 24.5s-17.833 21.5 -23.5 34.5s-8.5 26.167 -8.5 39.5z" />
    <glyph glyph-name=".null" horiz-adv-x="0" 
 />
    <glyph glyph-name="nonmarkingreturn" horiz-adv-x="280" 
 />
    </font>
</defs>
</svg>
